<svg width="33" height="32" viewBox="0 0 33 32" fill="none" xmlns="http://www.w3.org/2000/svg">
<path d="M28.2398 29V1H4.64706V29H1.05685V31H31.8301V29H28.2398ZM26.1883 29H17.4692V25H15.4177V29H6.69861V3H26.1883V29Z" fill="#35344C"/>
<path d="M10.2888 19H12.3403V21H10.2888V19Z" fill="#35344C"/>
<path d="M15.4177 19H17.4692V21H15.4177V19Z" fill="#35344C"/>
<path d="M20.5465 19H22.5981V21H20.5465V19Z" fill="#35344C"/>
<path d="M10.2888 13H12.3403V15H10.2888V13Z" fill="#35344C"/>
<path d="M15.4177 13H17.4692V15H15.4177V13Z" fill="#35344C"/>
<path d="M20.5465 13H22.5981V15H20.5465V13Z" fill="#35344C"/>
<path d="M10.2888 7H12.3403V9H10.2888V7Z" fill="#35344C"/>
<path d="M15.4177 7H17.4692V9H15.4177V7Z" fill="#35344C"/>
<path d="M20.5465 7H22.5981V9H20.5465V7Z" fill="#35344C"/>
</svg>
