<svg width="24" height="24" viewBox="0 0 24 24" fill="none" xmlns="http://www.w3.org/2000/svg">
<path d="M22.125 4.5H18V1.875H16.5V4.5H7.5V1.875H6V4.5H1.875C1.254 4.501 0.751 5.004 0.75 5.625V21.375C0.751 21.996 1.254 22.499 1.875 22.5H22.125C22.746 22.499 23.249 21.996 23.25 21.375V5.625C23.249 5.004 22.746 4.501 22.125 4.5ZM21.75 21H2.25V6H6V7.875H7.5V6H16.5V7.875H18V6H21.75V21Z" fill="#474374"/>
<path d="M11.409 14.689L8.86 12.14L7.799 13.201L11.409 16.811L17.297 10.923L16.236 9.862L11.408 14.69L11.409 14.689Z" fill="#474374"/>
</svg>
