<svg width="12" height="20" viewBox="0 0 12 20" fill="none" xmlns="http://www.w3.org/2000/svg">
<path d="M7.875 9.24999H4.125C4.124 9.24999 4.123 9.24999 4.122 9.24999C2.925 9.24999 1.955 8.27999 1.955 7.08299C1.955 5.88599 2.925 4.91599 4.122 4.91599C4.123 4.91599 4.124 4.91599 4.125 4.91599H10.125V3.41599H6.937V0.623993H5.437V3.41599H4.124C4.123 3.41599 4.121 3.41599 4.12 3.41599C2.095 3.41599 0.452999 5.05799 0.452999 7.08299C0.452999 9.10799 2.095 10.75 4.12 10.75C4.121 10.75 4.123 10.75 4.124 10.75H7.874C9.07 10.751 10.039 11.721 10.041 12.917V13.084C10.04 14.28 9.07 15.249 7.874 15.251H1.527V16.751H5.437V19.376H6.937V16.751H7.875C9.899 16.749 11.539 15.108 11.542 13.085V12.918C11.54 10.894 9.899 9.25399 7.876 9.25099L7.875 9.24999Z" fill="#474374"/>
</svg>
