<svg width="33" height="32" viewBox="0 0 33 32" fill="none" xmlns="http://www.w3.org/2000/svg">
<path d="M24.1057 25.4093H26.1572V15.5H18.4639V25.4093H24.1057ZM20.5155 17.5H24.1057V23.4093H20.5155V17.5Z" fill="#3F25C8"/>
<path d="M30.1112 13.528L17.3793 2.10933C16.9923 1.76133 16.4739 1.548 15.9036 1.548C15.3018 1.548 14.7561 1.78533 14.3622 2.17066L2.05155 14.172V31H9.23196V21H13.335V31H30.7732V14.1227L30.1112 13.528ZM28.7216 29H15.3866V19H7.18041V29H4.10309V15L15.8119 3.58533C15.8352 3.56266 15.8667 3.54933 15.9022 3.54933C15.9364 3.54933 15.9665 3.56133 15.9897 3.58266L28.7216 15.0013V29Z" fill="#3F25C8"/>
</svg>
