<svg
	width="34"
	height="32"
	viewBox="0 0 34 32"
	fill="none"
	xmlns="http://www.w3.org/2000/svg"
>
	<path
		d="M24.7501 25.4093H26.8016V15.5H19.1083V25.4093H24.7501ZM21.1599 17.5H24.7501V23.4093H21.1599V17.5Z"
		fill="#35344C"
	/>
	<path
		d="M30.7556 13.528L18.0237 2.10933C17.6367 1.76133 17.1183 1.548 16.548 1.548C15.9462 1.548 15.4005 1.78533 15.0066 2.17067L2.69595 14.172V31H9.87636V21H13.9795V31H31.4176V14.1227L30.7556 13.528ZM29.3661 29H16.031V19H7.82482V29H4.7475V15L16.4564 3.58533C16.4796 3.56267 16.5111 3.54933 16.5466 3.54933C16.5808 3.54933 16.6109 3.56133 16.6342 3.58267L29.3661 15.0013V29Z"
		fill="#35344C"
	/>
</svg>
